<svg width="940" height="341" viewBox="0 0 940 341" fill="none" xmlns="http://www.w3.org/2000/svg">
<path d="M15.984 86L10.008 75.74H6.048V86H2.772V60.908H10.872C12.768 60.908 14.364 61.232 15.66 61.88C16.98 62.528 17.964 63.404 18.612 64.508C19.26 65.612 19.584 66.872 19.584 68.288C19.584 70.016 19.08 71.54 18.072 72.86C17.088 74.18 15.6 75.056 13.608 75.488L19.908 86H15.984ZM6.048 73.112H10.872C12.648 73.112 13.98 72.68 14.868 71.816C15.756 70.928 16.2 69.752 16.2 68.288C16.2 66.8 15.756 65.648 14.868 64.832C14.004 64.016 12.672 63.608 10.872 63.608H6.048V73.112ZM33.2783 86.324C31.4303 86.324 29.7503 85.904 28.2383 85.064C26.7503 84.224 25.5743 83.036 24.7103 81.5C23.8703 79.94 23.4503 78.14 23.4503 76.1C23.4503 74.084 23.8823 72.308 24.7463 70.772C25.6343 69.212 26.8343 68.024 28.3463 67.208C29.8583 66.368 31.5503 65.948 33.4223 65.948C35.2943 65.948 36.9863 66.368 38.4983 67.208C40.0103 68.024 41.1983 69.2 42.0623 70.736C42.9503 72.272 43.3943 74.06 43.3943 76.1C43.3943 78.14 42.9383 79.94 42.0263 81.5C41.1383 83.036 39.9263 84.224 38.3903 85.064C36.8543 85.904 35.1503 86.324 33.2783 86.324ZM33.2783 83.444C34.4543 83.444 35.5583 83.168 36.5903 82.616C37.6223 82.064 38.4503 81.236 39.0743 80.132C39.7223 79.028 40.0463 77.684 40.0463 76.1C40.0463 74.516 39.7343 73.172 39.1103 72.068C38.4863 70.964 37.6703 70.148 36.6623 69.62C35.6543 69.068 34.5623 68.792 33.3863 68.792C32.1863 68.792 31.0823 69.068 30.0743 69.62C29.0903 70.148 28.2983 70.964 27.6983 72.068C27.0983 73.172 26.7983 74.516 26.7983 76.1C26.7983 77.708 27.0863 79.064 27.6623 80.168C28.2623 81.272 29.0543 82.1 30.0383 82.652C31.0223 83.18 32.1023 83.444 33.2783 83.444ZM50.9777 69.944C51.6497 68.768 52.6337 67.808 53.9297 67.064C55.2257 66.32 56.7017 65.948 58.3577 65.948C60.1337 65.948 61.7297 66.368 63.1457 67.208C64.5617 68.048 65.6777 69.236 66.4937 70.772C67.3097 72.284 67.7177 74.048 67.7177 76.064C67.7177 78.056 67.3097 79.832 66.4937 81.392C65.6777 82.952 64.5497 84.164 63.1097 85.028C61.6937 85.892 60.1097 86.324 58.3577 86.324C56.6537 86.324 55.1537 85.952 53.8577 85.208C52.5857 84.464 51.6257 83.516 50.9777 82.364V86H47.7017V59.36H50.9777V69.944ZM64.3697 76.064C64.3697 74.576 64.0697 73.28 63.4697 72.176C62.8697 71.072 62.0537 70.232 61.0217 69.656C60.0137 69.08 58.8977 68.792 57.6737 68.792C56.4737 68.792 55.3577 69.092 54.3257 69.692C53.3177 70.268 52.5017 71.12 51.8777 72.248C51.2777 73.352 50.9777 74.636 50.9777 76.1C50.9777 77.588 51.2777 78.896 51.8777 80.024C52.5017 81.128 53.3177 81.98 54.3257 82.58C55.3577 83.156 56.4737 83.444 57.6737 83.444C58.8977 83.444 60.0137 83.156 61.0217 82.58C62.0537 81.98 62.8697 81.128 63.4697 80.024C64.0697 78.896 64.3697 77.576 64.3697 76.064ZM80.6338 86.324C78.7858 86.324 77.1058 85.904 75.5938 85.064C74.1058 84.224 72.9298 83.036 72.0658 81.5C71.2258 79.94 70.8058 78.14 70.8058 76.1C70.8058 74.084 71.2378 72.308 72.1018 70.772C72.9898 69.212 74.1898 68.024 75.7018 67.208C77.2138 66.368 78.9058 65.948 80.7778 65.948C82.6498 65.948 84.3418 66.368 85.8538 67.208C87.3658 68.024 88.5538 69.2 89.4178 70.736C90.3058 72.272 90.7498 74.06 90.7498 76.1C90.7498 78.14 90.2938 79.94 89.3818 81.5C88.4938 83.036 87.2818 84.224 85.7458 85.064C84.2098 85.904 82.5058 86.324 80.6338 86.324ZM80.6338 83.444C81.8098 83.444 82.9138 83.168 83.9458 82.616C84.9778 82.064 85.8058 81.236 86.4298 80.132C87.0778 79.028 87.4018 77.684 87.4018 76.1C87.4018 74.516 87.0898 73.172 86.4658 72.068C85.8418 70.964 85.0258 70.148 84.0178 69.62C83.0098 69.068 81.9178 68.792 80.7418 68.792C79.5418 68.792 78.4378 69.068 77.4298 69.62C76.4458 70.148 75.6538 70.964 75.0538 72.068C74.4538 73.172 74.1538 74.516 74.1538 76.1C74.1538 77.708 74.4418 79.064 75.0178 80.168C75.6178 81.272 76.4098 82.1 77.3938 82.652C78.3778 83.18 79.4578 83.444 80.6338 83.444ZM99.0532 68.972V80.6C99.0532 81.56 99.2572 82.244 99.6652 82.652C100.073 83.036 100.781 83.228 101.789 83.228H104.201V86H101.249C99.4252 86 98.0572 85.58 97.1452 84.74C96.2332 83.9 95.7772 82.52 95.7772 80.6V68.972H93.2212V66.272H95.7772V61.304H99.0532V66.272H104.201V68.972H99.0532ZM109.862 63.068C109.238 63.068 108.71 62.852 108.278 62.42C107.846 61.988 107.63 61.46 107.63 60.836C107.63 60.212 107.846 59.684 108.278 59.252C108.71 58.82 109.238 58.604 109.862 58.604C110.462 58.604 110.966 58.82 111.374 59.252C111.806 59.684 112.022 60.212 112.022 60.836C112.022 61.46 111.806 61.988 111.374 62.42C110.966 62.852 110.462 63.068 109.862 63.068ZM111.446 66.272V86H108.17V66.272H111.446ZM115.806 76.1C115.806 74.06 116.214 72.284 117.03 70.772C117.846 69.236 118.974 68.048 120.414 67.208C121.878 66.368 123.546 65.948 125.418 65.948C127.842 65.948 129.834 66.536 131.394 67.712C132.978 68.888 134.022 70.52 134.526 72.608H130.998C130.662 71.408 130.002 70.46 129.018 69.764C128.058 69.068 126.858 68.72 125.418 68.72C123.546 68.72 122.034 69.368 120.882 70.664C119.73 71.936 119.154 73.748 119.154 76.1C119.154 78.476 119.73 80.312 120.882 81.608C122.034 82.904 123.546 83.552 125.418 83.552C126.858 83.552 128.058 83.216 129.018 82.544C129.978 81.872 130.638 80.912 130.998 79.664H134.526C133.998 81.68 132.942 83.3 131.358 84.524C129.774 85.724 127.794 86.324 125.418 86.324C123.546 86.324 121.878 85.904 120.414 85.064C118.974 84.224 117.846 83.036 117.03 81.5C116.214 79.964 115.806 78.164 115.806 76.1ZM145.881 86.324C144.369 86.324 143.013 86.072 141.813 85.568C140.613 85.04 139.665 84.32 138.969 83.408C138.273 82.472 137.889 81.404 137.817 80.204H141.201C141.297 81.188 141.753 81.992 142.569 82.616C143.409 83.24 144.501 83.552 145.845 83.552C147.093 83.552 148.077 83.276 148.797 82.724C149.517 82.172 149.877 81.476 149.877 80.636C149.877 79.772 149.493 79.136 148.725 78.728C147.957 78.296 146.769 77.876 145.161 77.468C143.697 77.084 142.497 76.7 141.561 76.316C140.649 75.908 139.857 75.32 139.185 74.552C138.537 73.76 138.213 72.728 138.213 71.456C138.213 70.448 138.513 69.524 139.113 68.684C139.713 67.844 140.565 67.184 141.669 66.704C142.773 66.2 144.033 65.948 145.449 65.948C147.633 65.948 149.397 66.5 150.741 67.604C152.085 68.708 152.805 70.22 152.901 72.14H149.625C149.553 71.108 149.133 70.28 148.365 69.656C147.621 69.032 146.613 68.72 145.341 68.72C144.165 68.72 143.229 68.972 142.533 69.476C141.837 69.98 141.489 70.64 141.489 71.456C141.489 72.104 141.693 72.644 142.101 73.076C142.533 73.484 143.061 73.82 143.685 74.084C144.333 74.324 145.221 74.6 146.349 74.912C147.765 75.296 148.917 75.68 149.805 76.064C150.693 76.424 151.449 76.976 152.073 77.72C152.721 78.464 153.057 79.436 153.081 80.636C153.081 81.716 152.781 82.688 152.181 83.552C151.581 84.416 150.729 85.1 149.625 85.604C148.545 86.084 147.297 86.324 145.881 86.324Z" fill="white" fill-opacity="0.39"/>
<path d="M423.408 17.908V36.448C423.408 38.512 422.772 40.168 421.5 41.416C420.228 42.64 418.548 43.252 416.46 43.252C414.348 43.252 412.656 42.628 411.384 41.38C410.112 40.108 409.476 38.38 409.476 36.196H412.752C412.776 37.42 413.088 38.416 413.688 39.184C414.312 39.952 415.236 40.336 416.46 40.336C417.684 40.336 418.596 39.976 419.196 39.256C419.796 38.512 420.096 37.576 420.096 36.448V17.908H423.408ZM428.638 33.064C428.638 31.048 429.046 29.284 429.862 27.772C430.678 26.236 431.794 25.048 433.21 24.208C434.65 23.368 436.246 22.948 437.998 22.948C439.726 22.948 441.226 23.32 442.498 24.064C443.77 24.808 444.718 25.744 445.342 26.872V23.272H448.654V43H445.342V39.328C444.694 40.48 443.722 41.44 442.426 42.208C441.154 42.952 439.666 43.324 437.962 43.324C436.21 43.324 434.626 42.892 433.21 42.028C431.794 41.164 430.678 39.952 429.862 38.392C429.046 36.832 428.638 35.056 428.638 33.064ZM445.342 33.1C445.342 31.612 445.042 30.316 444.442 29.212C443.842 28.108 443.026 27.268 441.994 26.692C440.986 26.092 439.87 25.792 438.646 25.792C437.422 25.792 436.306 26.08 435.298 26.656C434.29 27.232 433.486 28.072 432.886 29.176C432.286 30.28 431.986 31.576 431.986 33.064C431.986 34.576 432.286 35.896 432.886 37.024C433.486 38.128 434.29 38.98 435.298 39.58C436.306 40.156 437.422 40.444 438.646 40.444C439.87 40.444 440.986 40.156 441.994 39.58C443.026 38.98 443.842 38.128 444.442 37.024C445.042 35.896 445.342 34.588 445.342 33.1ZM461.534 39.976L467.654 23.272H471.146L463.406 43H459.59L451.85 23.272H455.378L461.534 39.976ZM473.146 33.064C473.146 31.048 473.554 29.284 474.37 27.772C475.186 26.236 476.302 25.048 477.718 24.208C479.158 23.368 480.754 22.948 482.506 22.948C484.234 22.948 485.734 23.32 487.006 24.064C488.278 24.808 489.226 25.744 489.85 26.872V23.272H493.162V43H489.85V39.328C489.202 40.48 488.23 41.44 486.934 42.208C485.662 42.952 484.174 43.324 482.47 43.324C480.718 43.324 479.134 42.892 477.718 42.028C476.302 41.164 475.186 39.952 474.37 38.392C473.554 36.832 473.146 35.056 473.146 33.064ZM489.85 33.1C489.85 31.612 489.55 30.316 488.95 29.212C488.35 28.108 487.534 27.268 486.502 26.692C485.494 26.092 484.378 25.792 483.154 25.792C481.93 25.792 480.814 26.08 479.806 26.656C478.798 27.232 477.994 28.072 477.394 29.176C476.794 30.28 476.494 31.576 476.494 33.064C476.494 34.576 476.794 35.896 477.394 37.024C477.994 38.128 478.798 38.98 479.806 39.58C480.814 40.156 481.93 40.444 483.154 40.444C484.378 40.444 485.494 40.156 486.502 39.58C487.534 38.98 488.35 38.128 488.95 37.024C489.55 35.896 489.85 34.588 489.85 33.1ZM506.654 43.252C504.998 43.252 503.51 42.964 502.19 42.388C500.894 41.788 499.874 40.972 499.13 39.94C498.386 38.884 498.002 37.672 497.978 36.304H501.47C501.59 37.48 502.07 38.476 502.91 39.292C503.774 40.084 505.022 40.48 506.654 40.48C508.214 40.48 509.438 40.096 510.326 39.328C511.238 38.536 511.694 37.528 511.694 36.304C511.694 35.344 511.43 34.564 510.902 33.964C510.374 33.364 509.714 32.908 508.922 32.596C508.13 32.284 507.062 31.948 505.718 31.588C504.062 31.156 502.73 30.724 501.722 30.292C500.738 29.86 499.886 29.188 499.166 28.276C498.47 27.34 498.122 26.092 498.122 24.532C498.122 23.164 498.47 21.952 499.166 20.896C499.862 19.84 500.834 19.024 502.082 18.448C503.354 17.872 504.806 17.584 506.438 17.584C508.79 17.584 510.71 18.172 512.198 19.348C513.71 20.524 514.562 22.084 514.754 24.028H511.154C511.034 23.068 510.53 22.228 509.642 21.508C508.754 20.764 507.578 20.392 506.114 20.392C504.746 20.392 503.63 20.752 502.766 21.472C501.902 22.168 501.47 23.152 501.47 24.424C501.47 25.336 501.722 26.08 502.226 26.656C502.754 27.232 503.39 27.676 504.134 27.988C504.902 28.276 505.97 28.612 507.338 28.996C508.994 29.452 510.326 29.908 511.334 30.364C512.342 30.796 513.206 31.48 513.926 32.416C514.646 33.328 515.006 34.576 515.006 36.16C515.006 37.384 514.682 38.536 514.034 39.616C513.386 40.696 512.426 41.572 511.154 42.244C509.882 42.916 508.382 43.252 506.654 43.252ZM518.603 33.1C518.603 31.06 519.011 29.284 519.827 27.772C520.643 26.236 521.771 25.048 523.211 24.208C524.675 23.368 526.343 22.948 528.215 22.948C530.639 22.948 532.631 23.536 534.191 24.712C535.775 25.888 536.819 27.52 537.323 29.608H533.795C533.459 28.408 532.799 27.46 531.815 26.764C530.855 26.068 529.655 25.72 528.215 25.72C526.343 25.72 524.831 26.368 523.679 27.664C522.527 28.936 521.951 30.748 521.951 33.1C521.951 35.476 522.527 37.312 523.679 38.608C524.831 39.904 526.343 40.552 528.215 40.552C529.655 40.552 530.855 40.216 531.815 39.544C532.775 38.872 533.435 37.912 533.795 36.664H537.323C536.795 38.68 535.739 40.3 534.155 41.524C532.571 42.724 530.591 43.324 528.215 43.324C526.343 43.324 524.675 42.904 523.211 42.064C521.771 41.224 520.643 40.036 519.827 38.5C519.011 36.964 518.603 35.164 518.603 33.1ZM544.97 26.476C545.546 25.348 546.362 24.472 547.418 23.848C548.498 23.224 549.806 22.912 551.342 22.912V26.296H550.478C546.806 26.296 544.97 28.288 544.97 32.272V43H541.694V23.272H544.97V26.476ZM556.816 20.068C556.192 20.068 555.664 19.852 555.232 19.42C554.8 18.988 554.584 18.46 554.584 17.836C554.584 17.212 554.8 16.684 555.232 16.252C555.664 15.82 556.192 15.604 556.816 15.604C557.416 15.604 557.92 15.82 558.328 16.252C558.76 16.684 558.976 17.212 558.976 17.836C558.976 18.46 558.76 18.988 558.328 19.42C557.92 19.852 557.416 20.068 556.816 20.068ZM558.4 23.272V43H555.124V23.272H558.4ZM567.259 26.908C567.907 25.78 568.867 24.844 570.139 24.1C571.435 23.332 572.935 22.948 574.639 22.948C576.391 22.948 577.975 23.368 579.391 24.208C580.831 25.048 581.959 26.236 582.775 27.772C583.591 29.284 583.999 31.048 583.999 33.064C583.999 35.056 583.591 36.832 582.775 38.392C581.959 39.952 580.831 41.164 579.391 42.028C577.975 42.892 576.391 43.324 574.639 43.324C572.959 43.324 571.471 42.952 570.175 42.208C568.903 41.44 567.931 40.492 567.259 39.364V52.36H563.983V23.272H567.259V26.908ZM580.651 33.064C580.651 31.576 580.351 30.28 579.751 29.176C579.151 28.072 578.335 27.232 577.303 26.656C576.295 26.08 575.179 25.792 573.955 25.792C572.755 25.792 571.639 26.092 570.607 26.692C569.599 27.268 568.783 28.12 568.159 29.248C567.559 30.352 567.259 31.636 567.259 33.1C567.259 34.588 567.559 35.896 568.159 37.024C568.783 38.128 569.599 38.98 570.607 39.58C571.639 40.156 572.755 40.444 573.955 40.444C575.179 40.444 576.295 40.156 577.303 39.58C578.335 38.98 579.151 38.128 579.751 37.024C580.351 35.896 580.651 34.576 580.651 33.064ZM592.307 25.972V37.6C592.307 38.56 592.511 39.244 592.919 39.652C593.327 40.036 594.035 40.228 595.043 40.228H597.455V43H594.503C592.679 43 591.311 42.58 590.399 41.74C589.487 40.9 589.031 39.52 589.031 37.6V25.972H586.475V23.272H589.031V18.304H592.307V23.272H597.455V25.972H592.307Z" fill="white" fill-opacity="0.39"/>
<path d="M147.234 197.409C147.221 198.801 146.73 199.952 145.762 200.862C144.81 201.757 143.358 202.186 141.406 202.149L138.191 202.09L138.126 209.073L135.943 209.033L136.097 192.305L141.496 192.406C143.383 192.441 144.811 192.924 145.778 193.854C146.762 194.784 147.247 195.969 147.234 197.409ZM141.423 200.35C142.638 200.372 143.537 200.125 144.118 199.608C144.698 199.09 144.993 198.344 145.002 197.368C145.021 195.304 143.847 194.25 141.479 194.206L138.264 194.146L138.207 200.29L141.423 200.35ZM161.286 196.351L153.189 215.546L150.934 215.504L153.583 209.217L148.4 196.111L150.824 196.156L154.853 206.888L159.03 196.309L161.286 196.351ZM166.128 198.241L166.057 205.992C166.051 206.632 166.182 207.091 166.452 207.368C166.721 207.629 167.192 207.766 167.864 207.778L169.472 207.808L169.455 209.656L167.487 209.62C166.271 209.597 165.362 209.3 164.759 208.729C164.157 208.157 163.861 207.232 163.873 205.952L163.944 198.2L162.241 198.168L162.257 196.369L163.961 196.4L163.991 193.088L166.175 193.129L166.144 196.441L169.576 196.505L169.559 198.305L166.128 198.241ZM178.751 196.435C179.743 196.454 180.636 196.686 181.432 197.133C182.228 197.564 182.846 198.208 183.287 199.064C183.743 199.921 183.965 200.957 183.954 202.173L183.883 209.925L181.723 209.884L181.791 202.445C181.803 201.133 181.485 200.127 180.835 199.427C180.186 198.71 179.293 198.342 178.157 198.321C177.006 198.299 176.082 198.642 175.388 199.349C174.709 200.057 174.364 201.098 174.351 202.474L174.284 209.746L172.101 209.705L172.264 191.946L174.448 191.987L174.388 198.466C174.826 197.803 175.423 197.294 176.178 196.94C176.949 196.586 177.807 196.418 178.751 196.435ZM193.182 210.314C191.951 210.291 190.833 209.99 189.831 209.411C188.844 208.833 188.068 208.026 187.501 206.991C186.951 205.941 186.682 204.736 186.694 203.376C186.707 202.032 187.006 200.853 187.591 199.84C188.192 198.811 189 198.034 190.012 197.509C191.025 196.968 192.156 196.709 193.404 196.732C194.651 196.755 195.777 197.056 196.779 197.635C197.782 198.198 198.567 198.996 199.133 200.031C199.716 201.066 200.001 202.263 199.988 203.623C199.976 204.983 199.661 206.178 199.043 207.206C198.442 208.219 197.627 208.996 196.598 209.537C195.569 210.078 194.43 210.337 193.182 210.314ZM193.2 208.394C193.984 208.408 194.722 208.238 195.413 207.883C196.104 207.528 196.661 206.986 197.084 206.258C197.523 205.53 197.747 204.638 197.756 203.582C197.766 202.526 197.566 201.626 197.157 200.882C196.748 200.139 196.209 199.584 195.541 199.22C194.872 198.84 194.146 198.642 193.362 198.627C192.562 198.613 191.825 198.783 191.149 199.138C190.49 199.478 189.957 200.012 189.551 200.741C189.144 201.469 188.936 202.362 188.926 203.418C188.916 204.489 189.1 205.397 189.477 206.14C189.87 206.884 190.393 207.445 191.045 207.826C191.698 208.19 192.416 208.379 193.2 208.394ZM209.329 197.004C210.928 197.034 212.22 197.546 213.202 198.54C214.185 199.519 214.668 200.92 214.652 202.744L214.58 210.496L212.421 210.455L212.489 203.016C212.501 201.704 212.183 200.698 211.533 199.998C210.884 199.281 209.991 198.913 208.855 198.892C207.703 198.87 206.78 199.213 206.086 199.92C205.407 200.628 205.062 201.669 205.049 203.045L204.982 210.317L202.798 210.276L202.919 197.125L205.103 197.166L205.086 199.038C205.524 198.374 206.113 197.864 206.852 197.51C207.607 197.156 208.433 196.988 209.329 197.004Z" fill="white" fill-opacity="0.39"/>
<path d="M823.004 102.375C821.624 102.349 820.387 102.086 819.291 101.585C818.216 101.065 817.372 100.37 816.76 99.498C816.149 98.6065 815.838 97.5906 815.828 96.4503L818.738 96.5044C818.829 97.4862 819.221 98.3236 819.915 99.0166C820.629 99.69 821.665 100.039 823.025 100.065C824.325 100.089 825.348 99.7878 826.093 99.1616C826.859 98.5157 827.247 97.6828 827.256 96.6629C827.264 95.8629 827.05 95.2089 826.615 94.7007C826.179 94.1925 825.633 93.8023 824.975 93.5301C824.318 93.2578 823.431 92.9613 822.314 92.6404C820.937 92.2548 819.831 91.8742 818.994 91.4985C818.178 91.1233 817.473 90.5501 816.88 89.779C816.307 88.9882 816.027 87.9429 816.039 86.643C816.049 85.503 816.348 84.4984 816.936 83.6293C817.524 82.7601 818.341 82.0952 819.385 81.6345C820.449 81.1743 821.661 80.9568 823.021 80.9821C824.981 81.0185 826.576 81.5383 827.806 82.5413C829.057 83.5447 829.755 84.8578 829.9 86.4808L826.901 86.425C826.808 85.6231 826.395 84.9153 825.66 84.3016C824.926 83.6679 823.949 83.3397 822.729 83.317C821.59 83.2958 820.657 83.5785 819.932 84.165C819.206 84.7316 818.839 85.5449 818.829 86.6048C818.822 87.3648 819.026 87.9887 819.442 88.4765C819.877 88.9646 820.404 89.3445 821.021 89.616C821.659 89.8679 822.546 90.1644 823.683 90.5056C825.059 90.9113 826.166 91.3119 827.002 91.7075C827.839 92.0831 828.553 92.6665 829.146 93.4576C829.739 94.2287 830.029 95.2743 830.017 96.5942C830.008 97.6142 829.729 98.5691 829.181 99.459C828.633 100.349 827.826 101.064 826.761 101.604C825.696 102.145 824.444 102.401 823.004 102.375ZM850.712 106.64L846.581 102.393C845.559 102.654 844.518 102.775 843.458 102.755C841.518 102.719 839.753 102.236 838.161 101.306C836.57 100.357 835.312 99.063 834.387 97.4256C833.482 95.7686 833.039 93.9201 833.058 91.8802C833.077 89.8403 833.553 88.0189 834.488 86.4161C835.443 84.7936 836.725 83.5473 838.333 82.6771C839.941 81.7869 841.715 81.3598 843.654 81.3959C845.614 81.4324 847.39 81.9255 848.981 82.8752C850.572 83.8049 851.82 85.0883 852.725 86.7253C853.63 88.3624 854.073 90.2108 854.054 92.2708C854.036 94.2707 853.579 96.0624 852.685 97.646C851.79 99.2295 850.569 100.467 849.021 101.358L854.251 106.706L850.712 106.64ZM835.847 91.9321C835.832 93.592 836.149 95.0581 836.797 96.3303C837.465 97.6029 838.376 98.59 839.53 99.2915C840.703 99.9934 842.02 100.358 843.48 100.385C844.939 100.412 846.252 100.097 847.418 99.4383C848.604 98.7802 849.533 97.8274 850.205 96.5797C850.896 95.3324 851.25 93.8788 851.265 92.2189C851.28 90.5389 850.954 89.0727 850.285 87.8201C849.637 86.5479 848.736 85.561 847.583 84.8594C846.429 84.1579 845.112 83.7933 843.633 83.7658C842.153 83.7383 840.83 84.0537 839.664 84.7121C838.498 85.3705 837.569 86.3234 836.878 87.5707C836.206 88.7983 835.863 90.2521 835.847 91.9321ZM860.37 100.639L867.689 100.775L867.668 102.995L857.62 102.808L857.812 81.8993L860.542 81.9501L860.37 100.639Z" fill="white" fill-opacity="0.39"/>
<path d="M62.7151 306.252L54.1944 296.552L54.1066 306.092L51.3771 306.041L51.5695 285.132L54.2991 285.183L54.2099 294.872L62.9376 285.344L66.387 285.408L56.8122 295.701L66.2845 306.319L62.7151 306.252ZM76.4992 306.779C74.9595 306.75 73.5629 306.374 72.3096 305.651C71.0763 304.927 70.1055 303.919 69.3974 302.626C68.7095 301.313 68.3734 299.807 68.3891 298.107C68.4045 296.427 68.7781 294.953 69.5097 293.687C70.2616 292.401 71.2705 291.429 72.5366 290.773C73.8028 290.096 75.2158 289.773 76.7755 289.802C78.3352 289.831 79.7418 290.207 80.9951 290.93C82.2486 291.634 83.2294 292.632 83.9375 293.925C84.6656 295.219 85.0218 296.716 85.0062 298.416C84.9905 300.116 84.5968 301.609 83.825 302.894C83.0733 304.161 82.0544 305.132 80.7681 305.808C79.4819 306.484 78.0589 306.808 76.4992 306.779ZM76.5213 304.379C77.5011 304.397 78.4231 304.184 79.2872 303.74C80.1513 303.296 80.8475 302.619 81.3759 301.709C81.9242 300.799 82.2045 299.684 82.2167 298.364C82.2288 297.044 81.9792 295.919 81.4677 294.989C80.9563 294.06 80.2827 293.367 79.4469 292.912C78.6112 292.436 77.7035 292.189 76.7237 292.171C75.7239 292.152 74.8019 292.365 73.9578 292.81C73.1339 293.234 72.4678 293.902 71.9594 294.813C71.451 295.723 71.1907 296.839 71.1786 298.159C71.1662 299.498 71.3958 300.633 71.8672 301.562C72.3587 302.491 73.0122 303.193 73.8278 303.669C74.6437 304.124 75.5415 304.36 76.5213 304.379ZM91.9791 292.605L91.8899 302.294C91.8826 303.094 92.0473 303.667 92.3841 304.014C92.7211 304.34 93.3095 304.511 94.1494 304.527L96.159 304.564L96.1378 306.874L93.6782 306.828C92.1584 306.8 91.0219 306.429 90.2684 305.715C89.515 305 89.1457 303.843 89.1604 302.244L89.2496 292.554L87.12 292.514L87.1407 290.264L89.2703 290.304L89.3084 286.164L92.0379 286.215L91.9998 290.355L96.2891 290.435L96.2684 292.684L91.9791 292.605ZM102.379 284.787L102.174 306.986L99.4449 306.935L99.6493 284.736L102.379 284.787ZM108.412 287.99C107.892 287.98 107.454 287.792 107.097 287.425C106.741 287.059 106.565 286.615 106.57 286.095C106.574 285.575 106.758 285.139 107.122 284.785C107.485 284.432 107.926 284.26 108.446 284.27C108.946 284.279 109.365 284.467 109.701 284.833C110.058 285.2 110.234 285.643 110.229 286.163C110.224 286.683 110.04 287.12 109.677 287.473C109.334 287.827 108.912 287.999 108.412 287.99ZM109.707 290.684L109.556 307.123L106.826 307.073L106.978 290.633L109.707 290.684ZM122.371 290.62C124.37 290.657 125.984 291.297 127.213 292.54C128.442 293.763 129.046 295.514 129.025 297.794L128.935 307.484L126.236 307.434L126.322 298.134C126.337 296.494 125.938 295.237 125.126 294.361C124.314 293.466 123.199 293.005 121.779 292.979C120.339 292.952 119.185 293.381 118.317 294.265C117.469 295.149 117.037 296.451 117.021 298.171L116.938 307.261L114.208 307.21L114.359 290.771L117.089 290.821L117.067 293.161C117.615 292.331 118.351 291.695 119.275 291.252C120.219 290.81 121.251 290.599 122.371 290.62Z" fill="white" fill-opacity="0.39"/>
<path d="M771.712 249.738C771.735 247.29 772.307 245.105 773.429 243.181C774.551 241.234 776.065 239.726 777.97 238.657C779.9 237.589 782.029 237.076 784.357 237.12C787.092 237.171 789.474 237.875 791.501 239.233C793.529 240.591 794.999 242.49 795.913 244.932L791.989 244.859C791.307 243.334 790.31 242.151 788.998 241.311C787.71 240.471 786.154 240.034 784.33 240C782.578 239.967 781.003 240.346 779.604 241.136C778.204 241.926 777.102 243.07 776.296 244.567C775.49 246.04 775.078 247.785 775.06 249.8C775.041 251.792 775.421 253.552 776.199 255.078C776.977 256.581 778.059 257.753 779.443 258.595C780.827 259.437 782.395 259.874 784.147 259.907C785.97 259.941 787.534 259.574 788.837 258.806C790.164 258.014 791.183 256.869 791.892 255.37L795.816 255.443C794.858 257.826 793.353 259.658 791.301 260.94C789.25 262.198 786.856 262.802 784.121 262.751C781.793 262.707 779.674 262.128 777.765 261.012C775.879 259.873 774.393 258.321 773.307 256.357C772.222 254.392 771.69 252.186 771.712 249.738ZM808.577 263.242C806.921 263.211 805.436 262.895 804.121 262.295C802.831 261.671 801.819 260.836 801.084 259.79C800.35 258.72 799.977 257.501 799.966 256.133L803.457 256.198C803.567 257.376 804.037 258.381 804.87 259.212C805.726 260.02 806.97 260.439 808.602 260.47C810.162 260.499 811.389 260.138 812.284 259.386C813.203 258.611 813.668 257.612 813.68 256.388C813.689 255.428 813.432 254.643 812.909 254.033C812.387 253.423 811.731 252.955 810.942 252.628C810.153 252.302 809.089 251.946 807.748 251.561C806.096 251.098 804.769 250.641 803.765 250.19C802.785 249.74 801.939 249.052 801.228 248.127C800.54 247.178 800.204 245.924 800.218 244.364C800.231 242.996 800.59 241.79 801.296 240.747C802.001 239.704 802.981 238.906 804.234 238.354C805.511 237.801 806.965 237.54 808.597 237.571C810.949 237.614 812.863 238.238 814.34 239.442C815.841 240.646 816.678 242.222 816.852 244.169L813.253 244.102C813.142 243.14 812.645 242.291 811.764 241.554C810.883 240.794 809.711 240.4 808.247 240.373C806.879 240.347 805.76 240.686 804.89 241.39C804.02 242.07 803.579 243.046 803.567 244.318C803.558 245.23 803.804 245.979 804.302 246.564C804.825 247.15 805.457 247.606 806.198 247.931C806.963 248.234 808.027 248.59 809.392 248.999C811.043 249.486 812.371 249.966 813.374 250.441C814.378 250.892 815.236 251.592 815.947 252.541C816.659 253.467 817.007 254.721 816.992 256.305C816.981 257.529 816.647 258.675 815.989 259.743C815.331 260.811 814.363 261.669 813.085 262.317C811.807 262.966 810.304 263.274 808.577 263.242ZM829.702 263.635C828.046 263.604 826.561 263.288 825.247 262.688C823.956 262.064 822.944 261.229 822.21 260.183C821.475 259.113 821.103 257.894 821.091 256.526L824.583 256.59C824.692 257.769 825.163 258.774 825.995 259.605C826.852 260.413 828.096 260.832 829.727 260.863C831.287 260.892 832.514 260.531 833.409 259.779C834.328 259.004 834.794 258.005 834.805 256.781C834.814 255.821 834.557 255.036 834.035 254.426C833.512 253.816 832.857 253.348 832.068 253.021C831.279 252.695 830.214 252.339 828.873 251.954C827.222 251.491 825.894 251.034 824.89 250.583C823.91 250.133 823.064 249.445 822.353 248.52C821.666 247.571 821.329 246.317 821.344 244.757C821.356 243.389 821.715 242.183 822.421 241.14C823.127 240.097 824.106 239.299 825.359 238.747C826.636 238.194 828.09 237.933 829.722 237.964C832.074 238.007 833.988 238.631 835.465 239.835C836.966 241.039 837.803 242.615 837.977 244.562L834.378 244.495C834.267 243.533 833.771 242.684 832.889 241.947C832.008 241.187 830.836 240.793 829.372 240.766C828.005 240.74 826.885 241.079 826.015 241.783C825.145 242.463 824.704 243.439 824.692 244.711C824.684 245.623 824.929 246.372 825.427 246.957C825.95 247.543 826.582 247.999 827.323 248.324C828.088 248.627 829.153 248.983 830.517 249.392C832.168 249.879 833.496 250.359 834.5 250.834C835.504 251.285 836.361 251.985 837.072 252.934C837.784 253.86 838.132 255.114 838.118 256.698C838.106 257.922 837.772 259.068 837.114 260.136C836.456 261.204 835.488 262.062 834.21 262.71C832.932 263.359 831.43 263.667 829.702 263.635Z" fill="white" fill-opacity="0.39"/>
<path d="M513.38 308.668L513.149 333.759L509.874 333.698L509.979 322.323L497.201 322.085L497.096 333.46L493.821 333.4L494.052 308.309L497.327 308.37L497.226 319.385L510.003 319.623L510.105 308.607L513.38 308.668ZM534.414 309.059L534.39 311.723L527.551 311.596L527.345 334.023L524.069 333.962L524.276 311.535L517.401 311.407L517.425 308.743L534.414 309.059ZM563.892 309.788L563.663 334.699L560.387 334.638L560.558 316.063L552.109 334.484L549.805 334.441L541.662 315.675L541.491 334.286L538.215 334.225L538.445 309.314L541.972 309.38L550.997 330.143L560.401 309.723L563.892 309.788ZM572.518 332.199L581.3 332.362L581.276 335.026L569.218 334.802L569.449 309.711L572.724 309.772L572.518 332.199Z" fill="white" fill-opacity="0.39"/>
</svg>
